<svg width="41" height="41" viewBox="0 0 25 25" fill="none" xmlns="http://www.w3.org/2000/svg">
<path fill-rule="evenodd" clip-rule="evenodd" d="M12.0866 21.0881V18.4077H12.0864C10.6834 18.4077 9.39475 17.9083 8.38876 17.0775C8.36331 17.0569 8.33942 17.0346 8.31463 17.0133C8.26854 16.9742 8.22219 16.9353 8.17754 16.8948C7.00615 15.83 6.26953 14.2949 6.26953 12.591C6.26979 9.76011 7.80468 7.10784 12.0866 4.09375V6.77406C12.8518 6.77419 13.5823 6.92427 14.2519 7.19404C15.6879 7.77227 16.8424 8.906 17.4453 10.3289C17.74 11.0247 17.9032 11.789 17.9032 12.591C17.9032 15.4217 16.368 18.0739 12.0866 21.0881ZM0 12.5935C0 16.3225 1.69808 19.6623 4.36126 21.881C4.44136 21.9478 4.5225 22.0141 4.60455 22.0788C4.61273 22.0852 4.62065 22.0917 4.62844 22.0983C6.68418 23.7143 9.2744 24.6792 12.0857 24.6794C12.1901 24.6794 12.2937 24.6781 12.3973 24.6754C18.897 24.51 24.137 19.1878 24.1708 12.6566C24.1709 12.6356 24.1717 12.6144 24.1717 12.5932C24.1714 5.92906 18.7496 0.507812 12.0857 0.507812C5.42178 0.507812 0 5.92932 0 12.5935Z" fill="#0099FF"/>
</svg>
