<svg width="189" height="146" viewBox="0 0 189 146" fill="none" xmlns="http://www.w3.org/2000/svg">
<path d="M102.012 38.46C101.992 33.3301 103.054 28.2563 105.125 23.5863C107.196 18.9161 110.228 14.7601 114.013 11.4028C122.134 3.8079 132.807 -0.273066 143.797 0.0142099C157.75 0.0142087 168.766 4.99111 176.846 14.9449C184.918 24.8423 189.231 37.3943 188.99 50.2914C188.99 81.1693 180.726 104.406 164.198 120C147.669 135.595 129.373 144.229 109.308 145.902L109.308 112.031C119.42 110.927 128.992 106.805 136.837 100.175C140.875 97.0791 144.201 93.1136 146.581 88.5578C148.961 84.0019 150.338 78.9666 150.614 73.8065C147.281 75.4701 143.616 76.3124 139.909 76.2663C127.925 76.2663 118.613 72.7816 111.973 65.8124C108.618 62.1629 106.009 57.8635 104.299 53.1664C102.589 48.4693 101.811 43.4693 102.012 38.46ZM0.00969519 38.46C-0.0155433 33.3294 1.0441 28.254 3.1157 23.5832C5.18728 18.9124 8.22164 14.7569 12.01 11.4028C20.1312 3.80791 30.8042 -0.273057 41.7947 0.0142188C55.7151 0.0142176 66.6434 4.99111 74.5796 14.9449C82.5543 24.8893 86.809 37.4215 86.5799 50.2914C86.5799 81.1694 78.4037 104.406 62.0513 120.001C45.6989 135.595 27.4264 144.262 7.2339 146L7.2339 112.129C17.3229 110.983 26.8615 106.826 34.6666 100.175C38.7343 97.0975 42.0904 93.1393 44.4963 88.5819C46.9022 84.0245 48.2989 78.9798 48.5869 73.8065C45.2633 75.4706 41.6054 76.3131 37.9067 76.2663C25.9383 76.2663 16.6261 72.7816 9.96996 65.8124C6.61556 62.1641 4.00816 57.8643 2.3016 53.1665C0.595038 48.4687 -0.176095 43.4682 0.0336973 38.46L0.00969519 38.46Z" fill="#5D8EEF" fill-opacity="0.22"/>
</svg>
